<svg width="22" height="22" viewBox="0 0 22 22" fill="none" xmlns="http://www.w3.org/2000/svg">
<path fill-rule="evenodd" clip-rule="evenodd" d="M9.60942 1.12458C10.4045 0.490657 11.5535 0.497909 12.3405 1.14181L20.829 8.08703C21.3128 8.4829 21.5903 9.06653 21.5864 9.68014L21.5275 19.0162C21.5202 20.158 20.5595 21.0775 19.3814 21.0701L2.31752 20.9624C1.13951 20.955 0.190376 20.0234 0.197583 18.8815L0.256506 9.54552C0.260379 8.93191 0.545233 8.35183 1.03401 7.9621L9.60942 1.12458ZM10.9649 2.72143L2.38949 9.55898L2.33057 18.895L6.59654 18.9219L6.61938 15.304C6.62659 14.1621 7.5874 13.2426 8.76542 13.25L13.0314 13.2769C14.2094 13.2844 15.1585 14.216 15.1513 15.3578L15.1285 18.9758L19.3945 19.0027L19.4534 9.66668L10.9649 2.72143ZM12.9955 18.9623L13.0183 15.3443L8.75237 15.3174L8.72953 18.9354L12.9955 18.9623Z" fill="#8B97AE"/>
</svg>
