<svg width="27" height="26" viewBox="0 0 27 26" fill="none" xmlns="http://www.w3.org/2000/svg">
<path d="M4.93313 10.1652C5.08353 10.0224 5.26153 9.90983 5.45694 9.8339C5.65235 9.75797 5.86131 9.72017 6.07186 9.72268C6.49616 9.72536 6.90205 9.89129 7.20024 10.184C7.49844 10.4766 7.6645 10.8721 7.66191 11.2833C7.66061 11.489 7.74364 11.6867 7.89274 11.833C8.04183 11.9794 8.24478 12.0623 8.45693 12.0637C8.66908 12.065 8.87306 11.9846 9.02399 11.8402C9.17492 11.6957 9.26044 11.4991 9.26174 11.2934C9.26196 10.8519 9.1649 10.4154 8.97706 10.0131C8.78922 9.61081 8.51493 9.25198 8.17253 8.96063C8.66801 8.54967 9.02201 8.00172 9.18709 7.39018C9.35218 6.77865 9.32047 6.13275 9.09621 5.53903C8.87195 4.9453 8.46586 4.43211 7.93234 4.06821C7.39882 3.70432 6.76337 3.5071 6.11111 3.50298C5.45886 3.49887 4.82096 3.68805 4.28289 4.04518C3.74482 4.40231 3.33229 4.91034 3.10055 5.50118C2.86882 6.09203 2.82896 6.73748 2.98631 7.35105C3.14366 7.96462 3.49071 8.51699 3.98096 8.93417C3.92468 8.98034 3.86044 9.0187 3.81215 9.06491C3.51329 9.35125 3.27559 9.69187 3.11263 10.0673C2.94967 10.4428 2.86464 10.8457 2.8624 11.253C2.8611 11.4587 2.94413 11.6564 3.09323 11.8027C3.24232 11.9491 3.44527 12.032 3.65742 12.0334C3.86957 12.0347 4.07355 11.9543 4.22448 11.8099C4.37541 11.6654 4.46094 11.4688 4.46223 11.2631C4.4623 11.0591 4.50394 10.857 4.58474 10.6686C4.66555 10.4802 4.78394 10.3091 4.93313 10.1652ZM6.10121 5.071C6.41763 5.073 6.72637 5.16589 6.98839 5.33793C7.2504 5.50996 7.45393 5.75342 7.57323 6.03751C7.69253 6.32161 7.72224 6.63357 7.65861 6.93396C7.59499 7.23435 7.44087 7.50967 7.21576 7.72511C6.99065 7.94055 6.70466 8.08643 6.39394 8.1443C6.08323 8.20217 5.76175 8.16943 5.47016 8.05023C5.17856 7.93102 4.92996 7.73071 4.75578 7.47461C4.58159 7.21851 4.48966 6.91813 4.49159 6.61146C4.49419 6.20023 4.66523 5.8069 4.96709 5.51801C5.26896 5.22911 5.67691 5.06832 6.10121 5.071Z" fill="#8B97AE"/>
<path d="M10.0611 11.2985C10.0598 11.5041 10.1428 11.7018 10.2919 11.8482C10.441 11.9945 10.6439 12.0775 10.8561 12.0788C11.0682 12.0802 11.2722 11.9998 11.4232 11.8553C11.5741 11.7109 11.6596 11.5142 11.6609 11.3086C11.6635 10.8973 11.8345 10.504 12.1364 10.2151C12.4383 9.92624 12.8462 9.76544 13.2705 9.76812C13.6948 9.7708 14.1007 9.93673 14.3989 10.2294C14.6971 10.5221 14.8632 10.9175 14.8606 11.3288C14.8593 11.5344 14.9423 11.7321 15.0914 11.8785C15.2405 12.0248 15.4434 12.1078 15.6556 12.1091C15.8677 12.1104 16.0717 12.03 16.2227 11.8856C16.3736 11.7412 16.4591 11.5445 16.4604 11.3389C16.4606 10.8974 16.3636 10.4609 16.1757 10.0585C15.9879 9.65625 15.7136 9.29742 15.3712 9.00607C15.8667 8.59511 16.2207 8.04716 16.3858 7.43562C16.5508 6.82409 16.5191 6.17819 16.2949 5.58447C16.0706 4.99074 15.6645 4.47755 15.131 4.11365C14.5975 3.74976 13.962 3.55254 13.3098 3.54842C12.6575 3.54431 12.0196 3.73349 11.4816 4.09062C10.9435 4.44775 10.531 4.95578 10.2992 5.54662C10.0675 6.13747 10.0276 6.78292 10.185 7.39649C10.3423 8.01006 10.6894 8.56243 11.1796 8.97961C10.8336 9.26662 10.5548 9.62196 10.3619 10.0219C10.169 10.4218 10.0664 10.857 10.0611 11.2985ZM11.6903 6.6569C11.6922 6.35023 11.7879 6.05104 11.9653 5.79716C12.1427 5.54328 12.3938 5.34612 12.6869 5.2306C12.98 5.11509 13.3018 5.08642 13.6118 5.1482C13.9218 5.20999 14.2059 5.35947 14.4283 5.57773C14.6506 5.79599 14.8013 6.07323 14.8611 6.3744C14.9209 6.67557 14.8873 6.98714 14.7644 7.2697C14.6415 7.55227 14.4349 7.79314 14.1708 7.96185C13.9066 8.13057 13.5967 8.21956 13.2803 8.21756C12.856 8.21488 12.4501 8.04895 12.1519 7.75627C11.8537 7.46359 11.6877 7.06814 11.6903 6.6569Z" fill="#8B97AE"/>
<path d="M22.5701 9.05149C23.0655 8.64054 23.4195 8.09258 23.5846 7.48105C23.7497 6.86952 23.718 6.22362 23.4937 5.62989C23.2695 5.03617 22.8634 4.52298 22.3299 4.15908C21.7963 3.79518 21.1609 3.59797 20.5086 3.59385C19.8564 3.58973 19.2185 3.77891 18.6804 4.13605C18.1423 4.49318 17.7298 5.0012 17.4981 5.59205C17.2663 6.1829 17.2265 6.82835 17.3838 7.44191C17.5412 8.05548 17.8882 8.60786 18.3785 9.02504C18.3222 9.0712 18.258 9.10956 18.2097 9.15578C17.9108 9.44211 17.6731 9.78273 17.5102 10.1582C17.3472 10.5336 17.2622 10.9365 17.2599 11.3439C17.2586 11.5495 17.3417 11.7473 17.4907 11.8936C17.6398 12.0399 17.8428 12.1229 18.0549 12.1242C18.2671 12.1256 18.4711 12.0452 18.622 11.9007C18.7729 11.7563 18.8585 11.5596 18.8598 11.354C18.8624 10.9428 19.0334 10.5494 19.3353 10.2606C19.6371 9.97166 20.0451 9.81087 20.4694 9.81355C20.8937 9.81622 21.2996 9.98215 21.5978 10.2748C21.896 10.5675 22.062 10.963 22.0594 11.3742C22.0581 11.5798 22.1412 11.7775 22.2903 11.9239C22.4394 12.0702 22.6423 12.1532 22.8544 12.1545C23.0666 12.1559 23.2706 12.0755 23.4215 11.931C23.5724 11.7866 23.658 11.5899 23.6593 11.3843C23.6595 10.9428 23.5624 10.5063 23.3746 10.104C23.1867 9.70167 22.9125 9.34284 22.5701 9.05149ZM20.4987 5.16186C20.8152 5.16386 21.1239 5.25675 21.3859 5.42879C21.6479 5.60083 21.8514 5.84429 21.9707 6.12838C22.09 6.41247 22.1198 6.72444 22.0561 7.02483C21.9925 7.32522 21.8384 7.60054 21.6133 7.81598C21.3882 8.03141 21.1022 8.17729 20.7915 8.23516C20.4807 8.29303 20.1593 8.26029 19.8677 8.14109C19.5761 8.02189 19.3275 7.82157 19.1533 7.56547C18.9791 7.30938 18.8872 7.009 18.8891 6.70233C18.8917 6.29109 19.0628 5.89777 19.3646 5.60887C19.6665 5.31998 20.0744 5.15919 20.4987 5.16186Z" fill="#8B97AE"/>
<path d="M21.2105 19.122L8.74049 19.0433L8.98187 18.8199C9.13341 18.6749 9.21928 18.4774 9.22058 18.271C9.22189 18.0645 9.13852 17.866 8.98882 17.719C8.83913 17.5721 8.63536 17.4888 8.42235 17.4875C8.20935 17.4861 8.00455 17.5668 7.85301 17.7119L6.24348 19.2523C6.1702 19.3256 6.11256 19.4122 6.07389 19.5071C5.9927 19.6954 5.99137 19.9071 6.07018 20.0963C6.10764 20.1917 6.16418 20.279 6.23653 20.3532L7.82649 21.9139C7.90039 21.987 7.98849 22.0453 8.08571 22.0852C8.18294 22.1252 8.28736 22.1461 8.39295 22.1468C8.49854 22.1475 8.60322 22.1279 8.70094 22.0891C8.79866 22.0504 8.88749 21.9933 8.9623 21.9211C9.03773 21.8495 9.09777 21.7641 9.13898 21.6699C9.18018 21.5757 9.20173 21.4745 9.20238 21.3721C9.20302 21.2698 9.18275 21.1683 9.14274 21.0736C9.10273 20.9788 9.04377 20.8927 8.96925 20.8202L8.73071 20.5938L21.2007 20.6725C21.4128 20.6739 21.6168 20.5935 21.7677 20.449C21.9186 20.3046 22.0041 20.1079 22.0054 19.9023C22.0067 19.6967 21.9237 19.4989 21.7746 19.3526C21.6255 19.2063 21.4226 19.1233 21.2105 19.122Z" fill="#8B97AE"/>
<path d="M11.0626 16.1814C10.9871 16.253 10.9271 16.3384 10.8859 16.4326C10.8447 16.5268 10.8231 16.628 10.8225 16.7304C10.8218 16.8327 10.8421 16.9342 10.8821 17.0289C10.9221 17.1236 10.9811 17.2098 11.0556 17.2823C11.1295 17.3555 11.2176 17.4137 11.3149 17.4537C11.4121 17.4936 11.5165 17.5146 11.6221 17.5152C11.7277 17.5159 11.8324 17.4963 11.9301 17.4575C12.0279 17.4188 12.1167 17.3617 12.1915 17.2895L13.8011 15.749C13.8744 15.6757 13.9321 15.5892 13.9707 15.4942C14.0519 15.306 14.0533 15.0943 13.9744 14.905C13.937 14.8096 13.8804 14.7223 13.8081 14.6481L12.218 13.0875C12.0683 12.9405 11.8645 12.8572 11.6515 12.8559C11.4385 12.8545 11.2337 12.9353 11.0821 13.0803C10.9306 13.2253 10.8447 13.4228 10.8434 13.6293C10.8421 13.8357 10.9255 14.0343 11.0752 14.1812L11.3138 14.4075L5.24238 14.3692C5.03023 14.3679 4.82625 14.4483 4.67532 14.5927C4.52439 14.7372 4.43887 14.9338 4.43757 15.1395C4.43627 15.3451 4.51931 15.5428 4.6684 15.6891C4.8175 15.8355 5.02044 15.9184 5.2326 15.9198L11.304 15.9581L11.0626 16.1814Z" fill="#8B97AE"/>
</svg>
