<svg width="27" height="26" viewBox="0 0 27 26" fill="none" xmlns="http://www.w3.org/2000/svg">
<path d="M20.0536 2.80587C19.2626 2.80087 18.4878 3.02334 17.8274 3.44513C17.167 3.86693 16.6506 4.4691 16.3434 5.17551C16.0362 5.88192 15.9521 6.66084 16.1016 7.41376C16.2512 8.16668 16.6278 8.85979 17.1837 9.40545C17.7396 9.9511 18.45 10.3248 19.2249 10.4793C19.9998 10.6337 20.8044 10.562 21.5371 10.2733C22.2698 9.98447 22.8976 9.49157 23.3411 8.85687C23.7846 8.22217 24.0239 7.47419 24.0287 6.70751C24.034 5.67979 23.6184 4.69185 22.8732 3.96042C22.128 3.22898 21.114 2.81377 20.0536 2.80587ZM20.0145 9.00811C19.5398 9.00511 19.0767 8.86578 18.6837 8.60772C18.2907 8.34966 17.9854 7.98447 17.8064 7.55834C17.6275 7.1322 17.5829 6.66425 17.6784 6.21366C17.7738 5.76308 18.005 5.3501 18.3426 5.02694C18.6803 4.70378 19.1093 4.48497 19.5754 4.39816C20.0414 4.31136 20.5237 4.36046 20.961 4.53927C21.3984 4.71807 21.7713 5.01855 22.0326 5.40269C22.2939 5.78684 22.4318 6.23741 22.4289 6.69741C22.4243 7.31405 22.1675 7.90365 21.7149 8.33684C21.2622 8.77004 20.6507 9.01145 20.0145 9.00811Z" fill="#8B97AE"/>
<path d="M21.5944 12.1193C21.3823 12.118 21.1783 12.1984 21.0274 12.3428C20.8765 12.4873 20.791 12.6839 20.7897 12.8896L20.7407 20.6424C20.7392 20.8479 20.6537 21.0445 20.5028 21.1889C20.3519 21.3333 20.148 21.4137 19.936 21.4126L5.53831 21.3217C5.32617 21.3204 5.12323 21.2374 4.97415 21.0911C4.82506 20.9447 4.74203 20.747 4.74333 20.5414L4.83141 6.58635C4.83298 6.38082 4.91858 6.18431 5.06944 6.03992C5.22031 5.89553 5.42411 5.81505 5.63617 5.81612L13.6349 5.8666C13.847 5.86794 14.051 5.78754 14.2019 5.6431C14.3528 5.49865 14.4383 5.30199 14.4396 5.09637C14.4409 4.89075 14.3579 4.69302 14.2088 4.54668C14.0597 4.40034 13.8568 4.31738 13.6447 4.31604L5.64596 4.26556C5.00975 4.26222 4.39826 4.50363 3.94564 4.93682C3.49303 5.37002 3.23626 5.95961 3.23167 6.57625L3.14359 20.5313C3.14081 20.8368 3.20059 21.1399 3.31948 21.4229C3.43837 21.706 3.61401 21.9634 3.83622 22.1802C4.2844 22.6178 4.8925 22.8665 5.52852 22.8723L19.9262 22.9632C20.5624 22.9665 21.1739 22.7251 21.6265 22.2919C22.0791 21.8587 22.3359 21.2691 22.3405 20.6525L22.3894 12.8997C22.3907 12.694 22.3077 12.4963 22.1586 12.35C22.0095 12.2036 21.8066 12.1207 21.5944 12.1193Z" fill="#8B97AE"/>
</svg>
