<svg width="26" height="26" viewBox="0 0 26 26" fill="none" xmlns="http://www.w3.org/2000/svg">
<path d="M21.3654 12.6589L16.777 9.65275C16.394 7.3048 15.2672 5.13011 13.5527 3.42992C13.4788 3.35678 13.3907 3.29855 13.2934 3.25857C13.1962 3.2186 13.0918 3.19767 12.9862 3.19701C12.8806 3.19634 12.7759 3.21595 12.6782 3.25469C12.5805 3.29343 12.4917 3.35055 12.4168 3.42275C10.681 5.10116 9.52683 7.26145 9.11422 9.60439L4.48818 12.5524C4.37771 12.6219 4.28668 12.7168 4.22317 12.8287C4.15967 12.9406 4.12567 13.0659 4.12418 13.1936L4.10461 16.2947C4.10331 16.5003 4.18634 16.6981 4.33542 16.8444C4.48451 16.9907 4.68744 17.0737 4.89958 17.075L6.49932 17.0851C6.71146 17.0865 6.91543 17.0061 7.06635 16.8616C7.21727 16.7172 7.30279 16.5205 7.30409 16.3149C7.30538 16.1093 7.22236 15.9116 7.07327 15.7652C6.92418 15.6189 6.72125 15.5359 6.50911 15.5346L5.70924 15.5295L5.72128 13.6223L8.93382 11.5725L8.90383 16.325C8.90253 16.5306 8.98556 16.7284 9.13464 16.8747C9.28373 17.021 9.48666 17.104 9.6988 17.1053L16.0978 17.1457C16.3099 17.1471 16.5139 17.0667 16.6648 16.9222C16.8157 16.7778 16.9012 16.5811 16.9025 16.3755L16.9325 11.623L20.1189 13.7132L20.1069 15.6204L19.307 15.6154C19.0949 15.614 18.8909 15.6944 18.74 15.8389C18.5891 15.9833 18.5036 16.18 18.5023 16.3856C18.501 16.5912 18.584 16.7889 18.7331 16.9353C18.8822 17.0816 19.0851 17.1646 19.2972 17.1659L20.897 17.176C21.1091 17.1773 21.3131 17.097 21.464 16.9525C21.6149 16.8081 21.7004 16.6114 21.7017 16.4058L21.7213 13.3047C21.7214 13.177 21.689 13.0512 21.6269 12.9385C21.5649 12.8259 21.475 12.7298 21.3654 12.6589ZM15.3077 15.5901L10.5085 15.5598L10.5346 11.4198C10.5539 9.09804 11.4179 6.85765 12.9742 5.09319C14.5082 6.87715 15.3438 9.12827 15.3338 11.4501L15.3077 15.5901Z" fill="#8B97AE"/>
<path d="M16.0888 18.6963C15.8766 18.6949 15.6726 18.7753 15.5217 18.9198C15.3708 19.0642 15.2852 19.2609 15.2839 19.4665C15.2826 19.6721 15.3657 19.8699 15.5148 20.0162C15.6639 20.1625 15.8668 20.2455 16.079 20.2468C16.5754 20.2497 17.0588 20.4018 17.4625 20.682C17.8662 20.9623 18.1703 21.357 18.333 21.8117L7.40608 21.7427C7.57443 21.2901 7.88351 20.8993 8.2907 20.6242C8.69789 20.349 9.18316 20.2031 9.67963 20.2065C9.89178 20.2078 10.0958 20.1274 10.2467 19.9829C10.3976 19.8385 10.4831 19.6418 10.4844 19.4362C10.4857 19.2306 10.4027 19.0329 10.2536 18.8865C10.1045 18.7402 9.90157 18.6572 9.68942 18.6559C8.62866 18.6492 7.60877 19.0512 6.85412 19.7734C6.09946 20.4956 5.67186 21.479 5.66537 22.5071C5.66411 22.6091 5.68365 22.7104 5.72287 22.8051C5.76208 22.8998 5.82019 22.9861 5.89387 23.059C6.04627 23.2016 6.24862 23.2832 6.46039 23.2874L19.2591 23.3682C19.4712 23.3695 19.6752 23.2891 19.8261 23.1447C19.9771 23.0002 20.0626 22.8035 20.0639 22.5979C20.0704 21.5698 19.6552 20.5812 18.9097 19.8495C18.1642 19.1178 17.1495 18.703 16.0888 18.6963Z" fill="#8B97AE"/>
</svg>
